Coordinates
version=1
nRows=17
nColumns=24
inDegrees=yes

Units are S.I. units (second, meters, Newtons, ...)
Angles are in degrees.

endheader
time	pelvis_tilt	pelvis_list	pelvis_rotation	pelvis_tx	pelvis_ty	pelvis_tz	hip_flexion_r	hip_adduction_r	hip_rotation_r	knee_angle_r	ankle_angle_r	subtalar_angle_r	mtp_angle_r	hip_flexion_l	hip_adduction_l	hip_rotation_l	knee_angle_l	ankle_angle_l	subtalar_angle_l	mtp_angle_l	lumbar_extension	lumbar_bending	lumbar_rotation
      4.18000000	     59.72241661	     -1.51300117	     -4.83197712	      0.83189791	      1.06354143	     -0.22731827	     14.99222154	     -8.02307688	      7.96610408	    -67.93704052	     12.91236969	     27.53980393	      0.00000000	      9.90155082	     -4.99976850	     -8.41107972	    -65.21745770	      0.20266421	     -1.35497719	      0.00000000	      0.00000000	      0.00000000	      0.00000000
      4.19000000	     59.73514208	     -1.50301098	     -4.82863532	      0.83191485	      1.06355585	     -0.22732868	     14.99365230	     -8.03982894	      7.94026991	    -68.45607149	     12.94837238	     27.57775104	      0.00000000	      9.88348293	     -4.97545478	     -8.42114532	    -65.07785592	      0.18428556	     -1.37402514	      0.00000000	      0.00000000	      0.00000000	      0.00000000
      4.20000000	     59.74710796	     -1.49560058	     -4.82523529	      0.83192000	      1.06356790	     -0.22733807	     14.99433972	     -8.06120401	      7.92655038	    -68.96612151	     12.97994176	     27.63426048	      0.00000000	      9.86816488	     -4.95339162	     -8.42443227	    -64.94721741	      0.16299243	     -1.38421535	      0.00000000	      0.00000000	      0.00000000	      0.00000000
      4.21000000	     59.75742696	     -1.48928953	     -4.82183536	      0.83191493	      1.06357550	     -0.22734570	     14.99438511	     -8.08637873	      7.92608907	    -69.46321037	     13.00522810	     27.70505269	      0.00000000	      9.85746119	     -4.93492869	     -8.42249400	    -64.82632026	      0.13915948	     -1.38103170	      0.00000000	      0.00000000	      0.00000000	      0.00000000
      4.22000000	     59.76577975	     -1.48232529	     -4.81855076	      0.83191109	      1.06357818	     -0.22734938	     14.99446081	     -8.11458622	      7.93860687	    -69.94380320	     13.02390183	     27.78197268	      0.00000000	      9.85183164	     -4.92073181	     -8.41764107	    -64.71558866	      0.11467605	     -1.36378697	      0.00000000	      0.00000000	      0.00000000	      0.00000000
      4.23000000	     59.77203142	     -1.47420061	     -4.81542937	      0.83191614	      1.06357277	     -0.22734340	     14.99559135	     -8.14552543	      7.96229314	    -70.40532854	     13.03716389	     27.85508249	      0.00000000	      9.85006312	     -4.91006683	     -8.41269043	    -64.61527207	      0.09226091	     -1.33564952	      0.00000000	      0.00000000	      0.00000000	      0.00000000
      4.24000000	     59.77623784	     -1.46584832	     -4.81254478	      0.83193133	      1.06355453	     -0.22732896	     14.99849229	     -8.17931657	      7.99449729	    -70.84629371	     13.04686086	     27.91547023	      0.00000000	      9.85014100	     -4.90115707	     -8.41014747	    -64.52530038	      0.07456499	     -1.30270456	      0.00000000	      0.00000000	      0.00000000	      0.00000000
      4.25000000	     59.77890984	     -1.45874617	     -4.80991990	      0.83195176	      1.06352414	     -0.22731374	     15.00334722	     -8.21634402	      8.03300460	    -71.26566794	     13.05433150	     27.95771644	      0.00000000	      9.85010336	     -4.89243315	     -8.41115704	    -64.44530605	      0.06354580	     -1.27238712	      0.00000000	      0.00000000	      0.00000000	      0.00000000
      4.26000000	     59.78114523	     -1.45373750	     -4.80746825	      0.83196733	      1.06349579	     -0.22730306	     15.00983169	     -8.25712832	      8.07708397	    -71.66198416	     13.05965444	     27.98115886	      0.00000000	      9.84858239	     -4.88376780	     -8.41490748	    -64.37483838	      0.06019739	     -1.25153864	      0.00000000	      0.00000000	      0.00000000	      0.00000000
      4.27000000	     59.78423660	     -1.45031876	     -4.80511370	      0.83197537	      1.06348318	     -0.22729928	     15.01686591	     -8.30178981	      8.12745489	    -72.03280895	     13.06161211	     27.98970310	      0.00000000	      9.84508512	     -4.87644764	     -8.41917827	    -64.31360288	      0.06436678	     -1.24436845	      0.00000000	      0.00000000	      0.00000000	      0.00000000
      4.28000000	     59.78891402	     -1.44735083	     -4.80268013	      0.83198257	      1.06348405	     -0.22730107	     15.02258967	     -8.34961047	      8.18551964	    -72.37480996	     13.05842455	     27.99033631	      0.00000000	      9.83979604	     -4.87181911	     -8.42186098	    -64.26181296	      0.07460858	     -1.25096976	      0.00000000	      0.00000000	      0.00000000	      0.00000000
      4.29000000	     59.79508113	     -1.44452426	     -4.79968879	      0.83199260	      1.06348797	     -0.22730070	     15.02500330	     -8.39941361	      8.25269433	    -72.68426511	     13.04892146	     27.99081023	      0.00000000	      9.83324184	     -4.87021452	     -8.42217901	    -64.22036514	      0.08834878	     -1.26715672	      0.00000000	      0.00000000	      0.00000000	      0.00000000
      4.30000000	     59.80222578	     -1.44265099	     -4.79568134	      0.83200420	      1.06348799	     -0.22728831	     15.02277722	     -8.45028011	      8.32996422	    -72.95780129	     13.03353229	     27.99720530	      0.00000000	      9.82617535	     -4.87129596	     -8.42058410	    -64.19050237	      0.10251195	     -1.28587183	      0.00000000	      0.00000000	      0.00000000	      0.00000000
      4.31000000	     59.80986715	     -1.44250053	     -4.79094000	      0.83201606	      1.06348211	     -0.22726018	     15.01564380	     -8.50169216	      8.41744172	    -73.19323032	     13.01467816	     28.01207277	      0.00000000	      9.81946850	     -4.87501647	     -8.41772856	    -64.17320734	      0.11440727	     -1.29960245	      0.00000000	      0.00000000	      0.00000000	      0.00000000
      4.32000000	     59.81763171	     -1.44388213	     -4.78669107	      0.83202548	      1.06346992	     -0.22722212	     15.00432386	     -8.55301395	      8.51408455	    -73.39020253	     12.99645176	     28.03367564	      0.00000000	      9.81377270	     -4.88173864	     -8.41377964	    -64.16876905	      0.12241633	     -1.30271048	      0.00000000	      0.00000000	      0.00000000	      0.00000000
      4.33000000	     59.82522241	     -1.44624582	     -4.78424312	      0.83202936	      1.06345468	     -0.22718317	     14.99028597	     -8.60324239	      8.61815688	    -73.55018200	     12.98363567	     28.05653634	      0.00000000	      9.80915201	     -4.89153572	     -8.40858328	    -64.17666887	      0.12619762	     -1.29281415	      0.00000000	      0.00000000	      0.00000000	      0.00000000
      4.34000000	     59.83238566	     -1.44980348	     -4.78386416	      0.83202929	      1.06344383	     -0.22714723	     14.97530727	     -8.65155043	      8.72839104	    -73.67558721	     12.98020203	     28.07315913	      0.00000000	      9.80501702	     -4.90392376	     -8.40202858	    -64.19573937	      0.12650434	     -1.27103786	      0.00000000	      0.00000000	      0.00000000	      0.00000000
